<svg xmlns="http://www.w3.org/2000/svg" viewBox="0 0 200 200" width="200" height="200">
  <!-- PANTHERA LOGO - Realistic Panther Face v1 (Golden Eyes) -->
  
  <defs>
    <!-- Gradient for depth -->
    <linearGradient id="furGradient" x1="0%" y1="0%" x2="0%" y2="100%">
      <stop offset="0%" style="stop-color:#2d2d2d"/>
      <stop offset="50%" style="stop-color:#1a1a1a"/>
      <stop offset="100%" style="stop-color:#0d0d0d"/>
    </linearGradient>
    
    <linearGradient id="eyeGradient" x1="0%" y1="0%" x2="100%" y2="100%">
      <stop offset="0%" style="stop-color:#FFD700"/>
      <stop offset="50%" style="stop-color:#FFA500"/>
      <stop offset="100%" style="stop-color:#FF8C00"/>
    </linearGradient>
    
    <radialGradient id="eyeShine" cx="30%" cy="30%" r="50%">
      <stop offset="0%" style="stop-color:#ffffff;stop-opacity:0.8"/>
      <stop offset="100%" style="stop-color:#ffffff;stop-opacity:0"/>
    </radialGradient>
  </defs>
  
  <!-- Main face shape -->
  <path d="M100 25 
           C 45 25, 20 70, 25 110 
           C 28 140, 45 170, 100 180 
           C 155 170, 172 140, 175 110 
           C 180 70, 155 25, 100 25 Z" 
        fill="url(#furGradient)"/>
  
  <!-- Left ear -->
  <path d="M35 55 C 25 25, 45 10, 60 35 C 55 45, 45 50, 35 55 Z" 
        fill="#1a1a1a"/>
  <path d="M40 50 C 35 35, 48 25, 55 40 C 52 45, 45 48, 40 50 Z" 
        fill="#2a2a2a"/>
  
  <!-- Right ear -->
  <path d="M165 55 C 175 25, 155 10, 140 35 C 145 45, 155 50, 165 55 Z" 
        fill="#1a1a1a"/>
  <path d="M160 50 C 165 35, 152 25, 145 40 C 148 45, 155 48, 160 50 Z" 
        fill="#2a2a2a"/>
  
  <!-- Brow ridge left -->
  <path d="M45 75 C 55 68, 70 70, 80 78" 
        stroke="#0d0d0d" stroke-width="4" fill="none" stroke-linecap="round"/>
  
  <!-- Brow ridge right -->
  <path d="M155 75 C 145 68, 130 70, 120 78" 
        stroke="#0d0d0d" stroke-width="4" fill="none" stroke-linecap="round"/>
  
  <!-- Left eye socket -->
  <ellipse cx="65" cy="95" rx="22" ry="18" fill="#0d0d0d"/>
  
  <!-- Right eye socket -->
  <ellipse cx="135" cy="95" rx="22" ry="18" fill="#0d0d0d"/>
  
  <!-- Left eye -->
  <ellipse cx="65" cy="95" rx="16" ry="14" fill="url(#eyeGradient)"/>
  <ellipse cx="65" cy="95" rx="7" ry="12" fill="#0d0d0d"/>
  <ellipse cx="62" cy="92" rx="4" ry="3" fill="url(#eyeShine)"/>
  
  <!-- Right eye -->
  <ellipse cx="135" cy="95" rx="16" ry="14" fill="url(#eyeGradient)"/>
  <ellipse cx="135" cy="95" rx="7" ry="12" fill="#0d0d0d"/>
  <ellipse cx="132" cy="92" rx="4" ry="3" fill="url(#eyeShine)"/>
  
  <!-- Nose bridge -->
  <path d="M100 85 L100 115" stroke="#151515" stroke-width="3" fill="none"/>
  
  <!-- Nose -->
  <path d="M85 125 
           C 85 115, 90 110, 100 110 
           C 110 110, 115 115, 115 125 
           C 115 132, 108 138, 100 138 
           C 92 138, 85 132, 85 125 Z" 
        fill="#1a1a1a"/>
  <ellipse cx="100" cy="125" rx="10" ry="7" fill="#2d2d2d"/>
  <!-- Nostrils -->
  <ellipse cx="93" cy="127" rx="4" ry="3" fill="#0d0d0d"/>
  <ellipse cx="107" cy="127" rx="4" ry="3" fill="#0d0d0d"/>
  
  <!-- Muzzle area -->
  <path d="M70 135 C 75 145, 85 155, 100 158 C 115 155, 125 145, 130 135" 
        fill="none" stroke="#252525" stroke-width="2"/>
  
  <!-- Mouth line -->
  <path d="M100 138 L100 148" stroke="#151515" stroke-width="2"/>
  <path d="M100 148 C 90 155, 85 152, 82 148" stroke="#151515" stroke-width="2" fill="none"/>
  <path d="M100 148 C 110 155, 115 152, 118 148" stroke="#151515" stroke-width="2" fill="none"/>
  
  <!-- Whisker spots -->
  <circle cx="60" cy="135" r="2" fill="#252525"/>
  <circle cx="55" cy="142" r="2" fill="#252525"/>
  <circle cx="52" cy="128" r="2" fill="#252525"/>
  <circle cx="140" cy="135" r="2" fill="#252525"/>
  <circle cx="145" cy="142" r="2" fill="#252525"/>
  <circle cx="148" cy="128" r="2" fill="#252525"/>
  
  <!-- Subtle fur texture lines on forehead -->
  <path d="M100 45 L100 60" stroke="#252525" stroke-width="1" opacity="0.5"/>
  <path d="M90 48 L85 62" stroke="#252525" stroke-width="1" opacity="0.5"/>
  <path d="M110 48 L115 62" stroke="#252525" stroke-width="1" opacity="0.5"/>
  
  <!-- Cheek contours -->
  <path d="M40 100 C 35 120, 45 145, 70 160" stroke="#151515" stroke-width="2" fill="none" opacity="0.5"/>
  <path d="M160 100 C 165 120, 155 145, 130 160" stroke="#151515" stroke-width="2" fill="none" opacity="0.5"/>
</svg>
